<svg xmlns="http://www.w3.org/2000/svg" xmlns:xlink="http://www.w3.org/1999/xlink" xml:space="preserve" version="1.1" style="shape-rendering:geometricPrecision;text-rendering:geometricPrecision;image-rendering:optimizeQuality;" viewBox="0 0 16429 22230" x="0px" y="0px" fill-rule="evenodd" clip-rule="evenodd"><defs><style type="text/css">
   
    .fil0 {fill:black;fill-rule:nonzero}
   
  </style></defs><g><path class="fil0" d="M12056 14307c-75,161 -153,317 -235,467 -191,354 -399,679 -622,972 264,-112 520,-239 768,-380l-57 678c-17,197 34,381 142,531 -1158,567 -2461,886 -3838,886 -2411,0 -4593,-977 -6173,-2557 -898,-898 -1601,-1990 -2041,-3209l1190 0c100,237 212,468 335,692l2170 0c-58,-225 -111,-456 -159,-692l1131 0c52,237 110,468 174,692l2819 0 0 -692 1109 0 0 692 2819 0c63,-224 122,-455 174,-692l808 0c-201,135 -323,344 -344,592l-170 2020zm-6826 1439c-224,-293 -432,-618 -623,-972 -211,-391 -402,-819 -569,-1278l-1773 0c175,218 362,427 560,624 685,685 1500,1241 2405,1626zm9516 -3359l157 0c123,-224 235,-455 335,-692l1191 0c-162,449 -360,880 -590,1291l-1093 -599zm-11210 -6621c48,-236 101,-466 159,-692l-2170 0c-123,224 -234,455 -335,692l-1190 0c440,-1218 1143,-2311 2041,-3209 1580,-1580 3762,-2557 6173,-2557 2411,0 4594,977 6174,2557 898,898 1601,1991 2041,3209l-1191 0c-100,-237 -212,-468 -335,-692l-2169 0c58,226 111,456 158,692l-1130 0c-52,-237 -111,-468 -174,-692l-2819 0 0 692 -1109 0 0 -692 -2819 0c-64,224 -122,455 -174,692l-1131 0zm-1271 -1801l1773 0c167,-459 358,-887 569,-1278 191,-354 399,-679 623,-972 -905,386 -1720,941 -2405,1626 -198,198 -385,406 -560,624zm8934 -2250c223,293 431,618 622,972 212,391 402,819 570,1278l1772 0c-175,-218 -362,-426 -559,-624 -685,-685 -1500,-1240 -2405,-1626zm5 11781l-2435 0 0 2774c786,-236 1509,-965 2078,-2020 128,-236 247,-488 357,-754zm-3544 2774l0 -2774 -2436 0c111,266 230,518 358,754 569,1055 1291,1784 2078,2020zm-2436 -12305l2436 0 0 -2773c-787,236 -1509,964 -2078,2019 -128,236 -247,488 -358,754zm3545 -2773l0 2773 2435 0c-110,-266 -229,-518 -357,-754 -569,-1055 -1292,-1783 -2078,-2019zm-7091 9107l-991 -3137 805 0 588 2056 541 -2056 799 0 521 2056 599 -2056 818 0 -1007 3137 -796 0 -539 -2018 -531 2018 -807 0zm5192 0l-992 -3137 806 0 587 2056 541 -2056 800 0 521 2056 599 -2056 818 0 -1007 3137 -796 0 -539 -2018 -532 2018 -806 0zm5191 0l-991 -3137 806 0 587 2056 541 -2056 800 0 521 2056 599 -2056 818 0 -1007 3137 -796 0 -539 -2018 -532 2018 -807 0zm4268 3865l-3307 -1810 -317 3757 1171 -629 1237 2302 1308 -703 -1237 -2302 1145 -615z"/></g><text x="0" y="17799" fill="#000000" font-size="5px" font-weight="bold" font-family="'Helvetica Neue', Helvetica, Arial-Unicode, Arial, Sans-serif">Created by popcornarts</text><text x="0" y="17804" fill="#000000" font-size="5px" font-weight="bold" font-family="'Helvetica Neue', Helvetica, Arial-Unicode, Arial, Sans-serif">from the Noun Project</text></svg>